<?xml version="1.0" encoding="UTF-8"?>
<svg id="Layer_1" xmlns="http://www.w3.org/2000/svg" version="1.1" viewBox="0 0 153.91 60.72" width="400" height="220">
  <!-- Generator: Adobe Illustrator 29.3.1, SVG Export Plug-In . SVG Version: 2.1.0 Build 151)  -->
  <defs>
    <style>
      .st0 {
        fill: #fff;
      }
    </style>
  </defs>
  <path class="st0" d="M0,60.72V0M65.97,4.58l-19.02,4.53.43,6.99,10.69,38.94c.33.56,7.92.91,9.13,1.13l-2.65-14.52c0-.31.17-.42.39-.58,1.13-.8,4.21-1.55,5.62-2.18l-2.27-13.43-7.09,2.15-1.44-9.11,10.08-4.81-3.87-9.1ZM119.04,6.72l-6.24,2.54,12.82,43.3,4.89-1.54-4.26-18.13,12.63,11.98c.6.11,4.78-5.62,5.59-6.34l-16.44-17.14,5.41-12.01-6.96-1.82c-.52.33-3.27,6.82-4.02,7.99-.15.23.03.43-.53.31l-2.89-9.12ZM105.82,48.94c.48-.39.22-7.72.25-8.99.23-7.66.66-15.36.98-23.02l-1.08-8.3-5.65-1.43-.96,28.56c-4.19.2-8.26,1.48-12.48,1.2l-1.71-27.69c-.08-.31-.29-.34-.57-.39-1.39-.26-3.67-.04-5.16-.24l1.2,41.76,25.18-1.47ZM20.4,29.52c6.84-.69,13.31-3,19.82-5.03l-3.01-9.75-28.78,4.57c2.61,11.75,6.54,23.15,10.1,34.63,1.56.24,3.45,1.98,4.88,2.2,3.04.48,10.47-.11,13.38-1.23,1.47-.57,2.85-2.2,4.27-2.95l-4.82-10.1c-2.54.28-4.75,1.92-7.32,1.82-2.21-.09-3.21-.95-4.57-2.63-2.47-3.07-3.25-7.75-3.96-11.52Z"/>
  <path class="st0" d="M20.4,29.52c.71,3.77,1.49,8.45,3.96,11.52,1.35,1.68,2.35,2.55,4.57,2.63,2.57.1,4.78-1.54,7.32-1.82l4.82,10.1c-1.43.75-2.81,2.38-4.27,2.95-2.91,1.12-10.34,1.71-13.38,1.23-1.43-.22-3.31-1.96-4.88-2.2-3.56-11.48-7.49-22.88-10.1-34.63l28.78-4.57,3.01,9.75c-6.51,2.03-12.99,4.34-19.82,5.03Z"/>
  <path class="st0" d="M65.97,4.58l3.87,9.1-10.08,4.81,1.44,9.11,7.09-2.15,2.27,13.43c-1.4.63-4.48,1.39-5.62,2.18-.22.16-.39.27-.39.58l2.65,14.52c-1.21-.22-8.8-.57-9.13-1.13l-10.69-38.94-.43-6.99,19.02-4.53Z"/>
  <path class="st0" d="M105.82,48.94l-25.18,1.47-1.2-41.76c1.49.2,3.78-.02,5.16.24.27.05.49.08.57.39l1.71,27.69c4.22.28,8.29-1,12.48-1.2l.96-28.56,5.65,1.43,1.08,8.3c-.32,7.66-.75,15.36-.98,23.02-.04,1.26.22,8.6-.25,8.99Z"/>
  <path class="st0" d="M119.04,6.72l2.89,9.12c.56.12.38-.08.53-.31.76-1.17,3.5-7.66,4.02-7.99l6.96,1.82-5.41,12.01,16.44,17.14c-.82.72-5,6.45-5.59,6.34l-12.63-11.98,4.26,18.13-4.89,1.54-12.82-43.3,6.24-2.54Z"/>
</svg>