<svg width="22453" height="9835" viewBox="0 0 22453 9835" fill="none" xmlns="http://www.w3.org/2000/svg">
<path d="M2447.68 3964.54C2528.14 4050.26 2629.6 3989.03 2725.82 4036.27C2781.8 4057.26 2822.03 4032.77 2867.51 4015.27C2878.01 4011.77 2890.25 4011.77 2900.75 4013.52C3005.71 4038.02 3131.66 4036.27 3215.63 3976.79C3266.36 3920.8 3187.64 3856.07 3189.39 3794.84C3189.39 3780.84 3185.89 3766.85 3177.14 3756.35C3112.42 3679.38 3002.21 3721.36 2919.99 3667.13C2914.74 3663.63 2907.75 3660.13 2900.75 3658.38C2839.52 3642.64 2776.55 3598.9 2699.58 3595.4C2692.58 3595.4 2687.33 3597.15 2680.33 3598.9C2612.11 3619.89 2447.68 3723.11 2423.18 3721.36C2423.18 3721.36 2423.18 3721.36 2421.44 3721.36C2388.2 3717.86 2356.71 3745.85 2358.46 3779.09C2358.46 3798.34 2361.96 3817.58 2365.46 3829.83C2379.45 3870.07 2403.94 3933.05 2447.68 3964.54Z" fill="white"/>
<path d="M3381.81 4652.08C3418.55 4746.55 3530.5 4750.05 3589.98 4828.78C3593.48 4834.03 3596.98 4837.52 3602.22 4841.02C3654.7 4877.76 3698.44 4942.49 3770.16 4973.98C3775.41 4975.73 3780.65 4977.48 3787.65 4977.48C3855.87 4984.48 3943.34 5024.72 3994.07 4975.73C4011.56 4959.99 4036.05 4954.74 4057.05 4965.24C4057.05 4965.24 4057.05 4965.24 4058.8 4965.24C4088.53 4980.98 4127.02 4965.24 4135.77 4932C4139.26 4916.25 4142.76 4902.25 4142.76 4890.01C4144.51 4849.77 4141.01 4785.04 4109.53 4739.55C4060.54 4634.59 3952.09 4650.33 3876.87 4571.61C3831.38 4533.12 3787.65 4540.11 3740.42 4536.62C3729.92 4536.62 3721.18 4533.12 3712.43 4526.12C3623.22 4463.14 3509.51 4417.65 3413.3 4440.39C3350.32 4471.89 3402.8 4557.61 3383.56 4611.84C3378.31 4625.84 3378.31 4639.83 3381.81 4652.08Z" fill="white"/>
<path d="M7818.08 5077.2C7772.6 5122.69 7763.85 5231.16 7727.12 5309.88C7786.59 5255.65 7891.55 5236.4 7972.02 5246.9C7882.81 5145.43 7818.08 5064.96 7818.08 5077.2Z" fill="white"/>
<path d="M10582 7718.9C10604.7 7717.15 10610 7703.16 10606.5 7685.66C10611.7 7657.67 10578.5 7608.69 10568 7605.19C10494.5 7587.69 10505 7496.72 10431.6 7473.98C10368.6 7491.47 10309.1 7514.22 10232.1 7510.72C10172.7 7550.96 9913.76 7738.15 9899.77 7815.12C9899.77 7832.62 9882.27 7874.61 9849.04 7869.36C9777.32 7836.12 9730.08 7760.89 9726.59 7683.91C9728.33 7638.43 9745.83 7591.19 9784.31 7550.96L10011.7 7468.73C10011.7 7468.73 10011.7 7468.73 10006.5 7463.48C10003 7461.73 9997.73 7461.73 9994.23 7459.98L10011.7 7454.73C10011.7 7454.73 10011.7 7454.73 10006.5 7449.49C9952.25 7440.74 9906.77 7426.74 9852.54 7409.25H9847.29C9819.3 7423.24 9784.31 7440.74 9751.08 7454.73C9710.84 7463.48 9674.11 7472.23 9654.86 7494.97C9654.86 7498.47 9656.61 7503.72 9656.61 7507.22C9656.61 7507.22 9654.86 7507.22 9654.86 7508.97C9654.86 7514.22 9656.61 7517.72 9656.61 7521.21C9651.36 7601.69 9555.15 7654.17 9504.42 7708.41C9339.99 7680.42 9271.76 7725.9 9117.82 7771.39C9061.84 7732.9 9042.6 7662.92 9040.85 7610.44C9056.6 7494.97 9191.29 7458.23 9277.01 7386.5C9336.49 7346.27 9317.25 7258.79 9331.24 7187.07C9362.73 7124.08 9458.94 7087.35 9462.44 6991.12C9462.44 6989.38 9462.44 6989.37 9460.69 6987.63C9460.69 6984.13 9462.44 6980.63 9462.44 6977.13C9434.45 6914.15 9430.95 6835.42 9380.22 6786.44C9303.25 6690.22 9189.54 6590.5 9044.35 6599.24C8990.12 6599.24 8948.14 6658.73 8893.91 6676.22C8893.91 6580 8888.66 6485.53 8885.16 6389.31C8811.69 6443.54 8734.72 6494.28 8666.5 6557.26C8666.5 6560.75 8668.25 6566 8668.25 6569.5L8666.5 6571.25C8701.49 6838.92 8729.47 7108.34 8755.71 7363.76C8710.23 7405.75 8425.09 7563.2 8388.36 7557.95C8246.66 7575.45 8265.9 7757.39 8134.71 7745.15C8103.22 7720.65 8096.22 7689.16 8096.22 7654.17C8096.22 7634.93 8097.97 7615.69 8097.97 7594.69C8097.97 7577.2 8097.97 7561.45 8094.47 7543.96C8071.73 7447.74 7758.6 7311.28 7662.39 7293.78C7616.91 7311.28 7639.65 7466.98 7616.91 7498.47C7588.92 7605.19 7576.67 7711.91 7576.67 7813.38C7576.67 7941.09 7595.92 8063.55 7632.65 8179.02C7634.4 8179.02 7636.15 8179.02 7637.9 8179.02C7639.65 8179.02 7641.4 8179.02 7643.15 8179.02C7644.9 8179.02 7644.9 8179.02 7646.65 8179.02C7648.4 8179.02 7650.15 8179.02 7651.89 8180.76C7653.64 8180.76 7653.64 8180.76 7655.39 8182.51C7657.14 8182.51 7658.89 8184.26 7660.64 8184.26C7662.39 8184.26 7664.14 8186.01 7664.14 8186.01C7665.89 8186.01 7667.64 8187.76 7669.39 8187.76C7671.14 8187.76 7672.89 8189.51 7674.64 8189.51C7676.39 8189.51 7678.13 8191.26 7679.88 8191.26C7681.63 8191.26 7683.38 8193.01 7685.13 8194.76C7686.88 8194.76 7686.88 8196.51 7688.63 8196.51C7690.38 8198.26 7692.13 8198.26 7693.88 8200.01L7695.63 8201.76C7697.38 8203.51 7700.88 8207.01 7702.62 8208.76C7739.36 8247.24 7727.12 8310.23 7714.87 8357.46C7713.12 8362.71 7711.37 8366.21 7711.37 8369.71C7713.12 8374.96 7716.62 8380.2 7718.37 8383.7C7721.87 8383.7 7725.37 8383.7 7728.86 8385.45H7730.61C7734.11 8385.45 7735.86 8387.2 7739.36 8387.2H7741.11C7744.61 8387.2 7746.36 8388.95 7749.86 8388.95H7751.61C7755.1 8388.95 7756.85 8390.7 7760.35 8390.7C7762.1 8390.7 7765.6 8392.45 7767.35 8394.2C7811.08 8383.7 7856.56 8373.21 7900.3 8360.96C7933.53 8352.21 7968.52 8346.96 8003.51 8338.22C8024.5 8332.97 8045.49 8325.97 8066.48 8324.22C8111.97 8318.97 8138.2 8345.21 8160.95 8381.95C8185.44 8422.19 8181.94 8469.43 8153.95 8506.17C8131.21 8535.91 8092.72 8553.4 8055.99 8553.4C8028 8553.4 8000.01 8541.16 7973.77 8548.15C7972.02 8548.15 7968.52 8549.9 7966.77 8549.9C7961.52 8551.65 7958.03 8555.15 7952.78 8556.9C7952.78 8556.9 7952.78 8556.9 7951.03 8558.65C7949.28 8560.4 7947.53 8562.15 7945.78 8562.15L7944.03 8563.9C7942.28 8565.65 7942.28 8565.65 7940.53 8567.4C7938.78 8569.15 7938.78 8570.9 7937.03 8570.9L7935.28 8572.65C7931.79 8577.9 7928.29 8581.39 7926.54 8586.64C7933.53 8602.39 7940.53 8616.38 7947.53 8632.13C7951.03 8632.13 7954.53 8630.38 7958.03 8630.38C7973.77 8630.38 7991.26 8637.38 7998.26 8651.37C8008.76 8668.87 8003.51 8691.61 7996.51 8709.11C7996.51 8709.11 7996.51 8709.1 7996.51 8710.85L7994.76 8712.6C8430.34 9088.74 9116.07 9144.72 9611.13 8537.66C9656.61 8490.42 9693.35 8437.94 9724.84 8381.95C9787.81 8408.2 9850.79 8432.69 9910.26 8455.43C9940 8465.93 9969.74 8444.93 9971.49 8413.44C9973.24 8334.72 10004.7 8271.74 9903.27 8205.26C9896.27 8200.01 9887.52 8198.26 9880.53 8198.26C9856.03 8196.51 9833.29 8198.26 9810.55 8198.26C9838.54 8128.28 9864.78 8056.55 9894.52 7984.82C9985.49 7956.83 10048.5 8081.04 10139.4 7998.82C10235.6 7902.6 10380.8 7867.61 10506.8 7857.11C10582 7855.36 10582 7778.39 10582 7718.9Z" fill="white"/>
<path d="M4877.48 6137.38C4763.77 6041.16 4700.8 5950.19 4741.03 5804.98L4781.26 5782.24C4821.5 5796.23 5171.36 5909.95 5153.87 5818.98C4908.96 5519.82 3950.34 5155.93 3572.49 4914.5C2858.76 4541.86 2145.04 4092.25 1427.82 3597.15L460.45 3952.29L577.654 4017.02C575.905 4018.77 575.905 4018.77 574.155 4020.52L460.45 3957.54L10.875 4125.49V4230.46V5056.21L4905.47 6698.96C4973.69 6510.02 4755.02 6331.57 4877.48 6137.38Z" fill="white"/>
<path d="M6213.96 5304.64C6117.74 5299.39 6222.7 5677.27 6128.24 5785.74C6469.36 6072.65 6887.44 6300.08 7265.3 6536.26C7296.78 6440.04 7247.8 6345.57 7302.03 6272.09C7424.48 6076.15 7669.39 6027.17 7874.06 6013.17C7982.52 5995.68 8092.72 6058.66 8209.93 6081.4C8264.16 6121.64 8283.4 6177.62 8300.89 6235.35C8360.37 6212.61 8428.59 6189.87 8488.07 6161.88C8570.29 6161.88 8760.96 6025.42 8878.17 5997.43C8727.73 5946.69 8556.29 5943.19 8460.08 5806.73C8428.59 5769.99 8269.4 5584.55 8118.96 5397.36C8124.21 5434.1 8113.71 5465.59 8101.47 5488.33C8028 5542.56 7896.8 5561.81 7779.6 5556.56C7720.12 5516.32 7716.62 5434.1 7716.62 5369.37C7699.13 5392.11 7665.89 5409.6 7625.66 5423.6C7552.18 5423.6 7511.95 5483.08 7471.72 5423.6C7307.28 5318.63 7312.53 5169.93 7149.84 5078.95C7076.37 4973.99 7331.77 4678.32 7377.25 4547.11L8645.51 5687.77L7246.05 1455.8L5514.23 2092.61C5932.32 3187.78 6327.66 4247.95 6677.52 5161.18C6605.8 5301.14 6378.39 5301.14 6213.96 5304.64ZM7291.54 6014.92C7405.24 6014.92 7518.95 5941.44 7564.43 5827.73C7595.92 5778.74 7653.64 5710.51 7693.88 5644.03L7695.63 5645.78C7655.39 5708.76 7590.67 5782.24 7564.43 5832.98C7524.2 5946.69 7405.24 6020.17 7291.54 6020.17C7223.31 6020.17 7104.36 6020.17 7064.12 5906.45C7064.12 5902.95 7064.12 5901.2 7064.12 5897.71C7106.11 6014.92 7223.31 6014.92 7291.54 6014.92Z" fill="white"/>
<path d="M16367 4246.2C16298.8 4286.44 16230.6 4300.44 16157.1 4305.69C15543.1 4660.83 14934.3 5019.47 14325.5 5374.61C14252.1 5434.1 14157.6 5448.09 14183.8 5525.07C14351.8 5533.82 14610.7 5610.79 14747.1 5533.82C16382.7 4771.05 18028.8 4011.78 19673.2 3243.76L18663.9 2857.12C17955.4 3266.5 17250.4 3675.88 16541.9 4083.5C16491.2 4141.24 16417.7 4191.97 16367 4246.2Z" fill="white"/>
<path d="M17680.7 7818.62C18058.6 7823.87 18380.5 7568.45 18557.1 7759.14L18725.1 7981.32L22442.4 8394.2V7412.75L16011.9 7076.85L15971.7 7094.34C16080.1 7185.31 16148.3 7339.27 16039.9 7452.98C16017.1 7489.72 15966.4 7526.46 15917.4 7552.7C16013.6 7592.94 16113.3 7638.43 16221.8 7671.67C16227.1 7657.67 16235.8 7648.93 16253.3 7654.17C16290 7668.17 16316.3 7676.92 16349.5 7694.41C16386.2 7699.66 16423 7699.66 16449.2 7699.66C16489.4 7722.4 16522.7 7767.89 16531.4 7813.37C16545.4 7818.62 16554.2 7827.37 16571.7 7827.37C16571.7 7822.12 16566.4 7822.12 16566.4 7813.37C16793.8 7827.37 17021.2 7853.61 17252.2 7867.61C17383.4 7804.63 17283.6 7685.66 17315.1 7599.94C17390.3 7508.97 17586.3 7881.6 17680.7 7818.62Z" fill="white"/>
<path d="M15298.2 7323.52C15294.7 7321.77 15289.4 7320.02 15285.9 7318.28C15149.5 7335.77 15058.5 7381.26 14964 7431.99C15105.7 7482.73 15259.7 7514.22 15390.9 7536.96C15392.6 7536.96 15394.4 7536.96 15396.1 7536.96C15355.9 7449.49 15410.1 7374.26 15298.2 7323.52Z" fill="white"/>
<path d="M5792.37 5518.07C5774.88 5418.35 5829.1 5241.65 5724.15 5176.92C4947.45 4503.38 4165.5 3712.62 3383.56 2881.62L2711.82 3130.04C3701.93 3975.04 4637.82 4799.04 5619.19 5467.33C5690.91 5491.83 5713.65 5554.81 5792.37 5518.07Z" fill="white"/>
<path d="M5913.07 4533.12L4676.3 2400.51L4020.31 2692.67C4543.36 3388.96 5106.64 3997.78 5634.93 4561.11C5738.14 4611.84 5876.34 4673.07 5913.07 4533.12Z" fill="white"/>
<path d="M12938.3 9797.28L13010.1 9834.01C12987.3 9821.77 12964.6 9809.52 12938.3 9797.28Z" fill="white"/>
<path d="M13286.4 9709.8C13276 9716.8 13263.7 9722.05 13251.5 9729.05H15833.5L12226.4 8632.13C11836.3 8637.38 11626.3 8873.56 11731.3 9067.75C11771.5 9104.49 11867.8 9085.24 11913.2 9062.5C12077.7 8989.02 12849.1 9076.49 13031 9102.74C13139.5 9193.71 13289.9 9244.44 13426.4 9293.43C13503.4 9407.14 13335.4 9489.37 13426.4 9592.59C13426.4 9596.09 13377.4 9769.29 13286.4 9709.8Z" fill="white"/>
<path d="M11710.3 9536.6C11411.2 9519.11 11559.9 9214.7 11351.7 9146.47C11147 9200.71 10931.9 9284.68 10727.2 9338.91L11440.9 9729.05H12481.8C12259.6 9625.83 11995.5 9540.1 11710.3 9536.6Z" fill="white"/>
<path d="M6946.92 8677.61C6987.15 8637.38 7078.12 8577.89 7183.08 8509.67C6855.96 8014.56 6878.7 7418 7296.78 6922.9C7064.12 6809.18 6827.97 6686.72 6597.06 6578.25C6437.87 6765.44 5874.59 7146.83 5592.95 7124.08L12.6241 6000.92V7327.02L4338.69 7246.55L10.8748 8245.5C392.226 8189.51 775.327 8135.28 1156.68 8081.04C1154.93 8082.79 1153.18 8086.29 1151.43 8089.79C768.329 8144.03 383.479 8198.26 0.378906 8254.24V8922.54L93.0928 8898.05V8899.8L10.8748 8922.54V9729.05H1027.23L1462.81 9435.14C1265.14 9555.85 1041.22 9454.38 829.555 9489.37C738.591 9526.11 665.12 9566.35 570.657 9575.09C516.428 9543.6 439.458 9515.61 439.458 9466.63C435.959 9463.13 432.46 9461.38 430.711 9457.88C435.959 9456.13 439.458 9449.13 439.458 9435.14C453.452 9344.16 430.711 9230.45 512.929 9167.47C735.092 9130.73 953.757 8985.52 1104.2 8854.31C1195.16 8780.83 1354.35 8917.29 1440.07 8845.56C1627.24 8791.33 1835.41 8703.86 2031.34 8577.89C2145.04 8537.66 2241.25 8464.18 2326.97 8549.9C2367.21 8772.09 2236.01 8885.8 2136.3 9064.25C2131.05 9177.96 2236.01 9317.92 2082.07 9400.15C1894.89 9473.62 1754.94 9531.36 1623.75 9632.83L2405.69 9387.9L2473.91 9146.47C2550.88 8941.78 2724.07 8710.85 2968.97 8665.37C3042.44 8716.1 3191.13 8770.34 3250.61 8847.31C3287.35 8938.29 3241.86 9057.25 3336.33 9106.24C4141.01 8847.31 5949.81 8210.51 6757.99 7951.58C6696.77 8014.57 4034.31 9729.05 4034.31 9729.05H5767.88L7006.4 8805.33C6960.91 8737.1 6927.68 8731.85 6946.92 8677.61ZM1247.64 8074.05L1233.65 8075.8C1238.9 8074.05 1244.14 8072.3 1249.39 8068.8C1251.14 8068.8 1254.64 8068.8 1256.39 8067.05C1254.64 8070.55 1251.14 8072.3 1247.64 8074.05ZM1417.33 8053.05C1415.58 8053.05 1415.58 8053.05 1413.83 8053.05C1415.58 8051.3 1417.33 8051.3 1419.08 8049.55C1417.33 8051.3 1417.33 8051.3 1417.33 8053.05ZM1503.04 8040.81C1506.54 8037.31 1511.79 8035.56 1515.29 8032.06C1534.53 8028.56 1553.77 8026.81 1573.02 8023.31C1567.77 8026.81 1560.77 8030.31 1555.52 8033.81C1538.03 8035.56 1520.54 8039.06 1503.04 8040.81ZM1670.98 8014.56C1667.48 8016.31 1663.98 8018.06 1660.48 8019.81C1627.24 8025.06 1595.76 8028.56 1562.52 8033.81C1566.02 8030.31 1569.52 8028.56 1573.02 8025.06C1608 8019.81 1642.99 8014.56 1677.97 8011.07C1676.23 8011.07 1672.73 8012.82 1670.98 8014.56ZM1732.2 8009.32C1723.46 8011.07 1714.71 8011.07 1705.96 8012.82C1711.21 8009.32 1716.46 8005.82 1723.46 8004.07C1728.7 8004.07 1733.95 8002.32 1740.95 8002.32C1737.45 8004.07 1733.95 8005.82 1732.2 8009.32Z" fill="white"/>
<path d="M1462.81 9435.13C1473.3 9428.14 1485.55 9421.14 1496.05 9412.39L1462.81 9435.13Z" fill="white"/>
<path d="M8563.29 964.196C8663 2272.8 8876.42 5736.75 8876.42 5736.75L9539.41 605.555L8563.29 964.196Z" fill="white"/>
<path d="M13330.2 4533.12L16013.6 1842.43L15116.2 1499.54L12745.9 4533.12C12999.6 4627.59 13076.5 4450.89 13330.2 4533.12Z" fill="white"/>
<path d="M14049.2 4499.88L14080.6 4540.12C14049.2 4571.61 13771 4867.27 13916.2 4867.27C14234.6 4767.55 14661.4 4435.15 15062 4121.99C15039.3 4085.25 15021.8 4045.02 15039.3 3990.78C15144.2 3768.6 15403.1 3626.89 15630.5 3581.41C15721.5 3490.43 15761.7 3376.72 15903.4 3359.22C16048.6 3353.97 16157.1 3259.5 16276 3208.77C16648.6 2927.1 17021.2 2645.44 17393.8 2358.53L16597.9 2054.12L13494.6 4559.36C13673 4477.13 13841 4436.9 14049.2 4499.88Z" fill="white"/>
<path d="M12305.1 6060.41C11820.5 6000.92 11271.2 5225.91 11390.2 4972.23L13851.5 1014.93L12896.3 651.042L12373.3 455.101L11190.8 0.238281L10721.9 168.187L10263.6 336.137L10454.3 1317.59C10522.5 1300.1 10573.3 1272.1 10618.7 1217.87C10687 1126.9 10777.9 1030.68 10863.6 1132.15C10872.4 1263.36 10868.9 1391.07 10886.4 1522.28C10926.6 1817.94 10659 1994.64 10636.2 2290.3C10636.2 2404.01 10568 2494.98 10545.3 2631.44C10522.5 2703.17 10545.3 2785.4 10527.8 2857.12C10527.8 2858.87 10526 2858.87 10526 2858.87C10454.3 2878.12 10368.6 2993.58 10282.9 2944.6C10242.6 2904.36 10219.9 2853.63 10209.4 2808.14L9332.99 5857.47C9464.19 5866.21 9546.41 5962.44 9651.36 5993.93C9633.87 5825.98 9628.62 5626.54 9628.62 5567.05C9702.09 5484.83 9737.08 5379.86 9770.32 5290.64C9875.28 5217.16 9988.98 5308.13 10074.7 5231.16C10092.2 5217.16 10268.9 5222.41 10232.1 5280.14C10230.4 5283.64 10230.4 5287.14 10233.9 5288.89C10307.4 5337.87 10414.1 5400.85 10365.1 5504.07C10260.1 5680.77 10169.2 5894.21 10211.1 6104.14C10228.6 6291.34 9992.48 6272.09 9960.99 6408.55C10148.2 6667.47 10379.1 6903.65 10447.3 7227.3C10578.5 7244.8 10692.2 7264.04 10742.9 7264.04C11255.5 6877.41 11790.8 6473.28 12305.1 6060.41ZM11014.1 5218.91L11050.8 5182.17L11091.1 5145.43L11127.8 5108.69L11168 5068.46L11204.8 5031.72L11278.2 4954.74L11301 4918L11337.7 4877.76L11388.4 4800.79L11411.2 4764.05L11433.9 4723.81L11456.7 4687.07H11461.9L11439.2 4723.81L11416.4 4764.05L11393.7 4800.79L11343 4877.76L11304.5 4918L11281.7 4954.74L11208.3 5031.72L11171.5 5068.46L11131.3 5108.69L11094.6 5145.43L11054.3 5182.17L11017.6 5218.91L10977.3 5255.65C10977.3 5253.9 10975.6 5252.15 10975.6 5250.4L11014.1 5218.91Z" fill="white"/>
<path d="M22452.9 6457.54V5390.36C21875.6 5479.58 21298.3 5568.81 20719.3 5654.53C20707.1 5621.29 20686.1 5589.8 20686.1 5556.56C20686.1 5542.56 20682.6 5528.57 20673.8 5518.07C20609.1 5441.09 20498.9 5483.08 20416.7 5428.85C20411.4 5425.35 20404.4 5421.85 20397.4 5420.1C20336.2 5404.35 20273.2 5360.62 20196.3 5357.12C20189.3 5357.12 20184 5358.87 20177 5360.62C20108.8 5381.61 19944.3 5484.83 19919.9 5483.08C19919.9 5483.08 19919.9 5483.08 19918.1 5483.08C19884.9 5479.58 19853.4 5507.57 19855.1 5540.81C19855.1 5560.06 19858.6 5579.3 19862.1 5591.55C19874.4 5631.79 19897.1 5694.77 19940.9 5728.01C19956.6 5743.75 19972.3 5754.25 19988.1 5763C18158.3 6028.92 16325 6268.59 14505.7 6441.79C14301.1 6359.57 14360.5 6137.38 14397.3 5986.93C14437.5 5895.96 13811.2 5927.45 13669.5 5813.73C13120.3 6081.4 12651.4 6419.05 12170.4 6723.46C12306.8 6763.69 12474.8 6740.95 12579.7 6805.68C12856.1 6956.14 12852.6 7192.31 12821.1 7383.01C12821.1 7482.73 12689.9 7573.7 12621.7 7682.17C12453.8 7778.39 12212.4 7704.91 12044.4 7750.4C11908 7823.87 11768 7937.59 11594.9 7904.35C11318.5 7886.85 11008.8 7773.14 10767.4 7886.85C10662.5 7946.34 10568 8054.8 10599.5 8163.27C10958.1 8290.98 11145.3 8317.22 11395.4 8527.16C11605.4 8527.16 11913.2 8590.14 12049.7 8458.93C12123.2 8458.93 12186.1 8499.17 12291.1 8532.41L18928 9729.05H22447.6L22438.9 9247.94C22438.9 9247.94 16671.4 8481.67 14853.8 8257.74C14853.8 8255.99 14853.8 8255.99 14853.8 8254.24C14836.3 8145.78 14839.8 7984.82 14827.6 7925.34C14713.9 7774.89 14582.7 7703.16 14554.7 7515.97C14551.2 7515.97 14549.5 7514.22 14546 7514.22V7512.47C14474.2 7496.72 14404.3 7470.48 14341.3 7438.99C14234.6 7384.76 14148.9 7311.28 14101.6 7230.8C14101.6 7166.07 14267.8 7085.6 14166.4 7022.62C14159.4 7017.37 14148.9 7012.12 14136.6 7006.87C14008.9 7015.62 13870.7 6994.62 13758.8 6973.63L13795.5 6952.64C16646.9 6753.2 22449.4 6459.29 22452.9 6457.54Z" fill="white"/>
<path d="M13557.6 5063.21C13559.3 5063.21 13559.3 5063.21 13561.1 5061.46C13625.8 5042.21 13655.6 4986.23 13625.8 4940.74C13604.8 4907.5 13582.1 4879.51 13562.8 4862.02C13506.9 4813.03 13405.4 4737.81 13298.7 4722.06C13078.3 4657.33 12954.1 4818.28 12738.9 4823.53C12621.7 4835.78 12574.5 4897.01 12508 4956.49C12492.3 4970.49 12469.5 4980.98 12443.3 4986.23C12238.6 5026.47 12026.9 5117.44 11927.2 5259.15C11922 5266.15 11918.5 5274.89 11916.7 5281.89C11894 5392.11 12079.4 5428.85 12130.1 5516.32C12142.4 5537.31 12161.6 5554.81 12189.6 5563.56C12373.3 5624.79 12529 5488.33 12721.4 5502.32C12737.2 5504.07 12752.9 5502.32 12766.9 5500.57C12889.4 5477.83 13041.5 5495.33 13178 5444.59C13190.2 5439.34 13200.7 5432.35 13211.2 5425.35C13314.4 5344.87 13494.6 5278.39 13485.9 5147.18C13484.1 5113.94 13510.4 5078.95 13557.6 5063.21Z" fill="white"/>
<path d="M15809 5918.7L19102.9 5320.38C19067.9 5292.39 19043.5 5260.9 19054 5217.16C19055.7 5208.41 19059.2 5201.42 19064.4 5194.42C19164.2 5052.71 19375.8 4961.74 19580.5 4921.5C19605 4916.25 19627.7 4905.76 19645.2 4891.76C19711.7 4832.28 19758.9 4769.3 19876.1 4758.8C20091.3 4753.55 20215.5 4592.6 20435.9 4657.33C20542.6 4671.33 20644.1 4746.55 20700.1 4797.29C20719.3 4814.78 20742 4842.77 20763 4876.01C20792.8 4923.25 20763 4977.48 20698.3 4996.73C20696.6 4996.73 20696.6 4996.73 20694.8 4998.48C20665.1 5007.22 20642.3 5026.47 20631.8 5047.46L22451.1 4716.81V4305.69L20701.8 3637.39C19598 4121.99 16932 5260.9 15837 5742C15719.8 5824.23 15604.3 5855.72 15809 5918.7Z" fill="white"/>
<path d="M8047.24 9284.68L7186.58 9748.29L10450.8 9758.79L9905.02 9456.13C9905.02 9456.13 9514.92 9496.37 9028.61 9464.88L8892.16 9512.11C8811.69 9527.86 8722.48 9547.1 8642.01 9562.85C8575.54 9545.35 8503.81 9555.85 8439.09 9562.85C8379.61 9534.85 8300.89 9513.86 8213.43 9496.37C8220.42 9445.63 8244.92 9398.4 8272.9 9352.91C8195.93 9333.67 8120.71 9310.92 8047.24 9284.68Z" fill="white"/>
</svg>
